<svg xmlns="http://www.w3.org/2000/svg" viewBox="0 0 32 32" fill="none">
  <!-- Background circle -->
  <rect width="32" height="32" rx="8" fill="#2563eb"/>
  <!-- Flask body -->
  <path d="M12 6 L12 14 L7 23 C6 25 7.2 27 9.5 27 L22.5 27 C24.8 27 26 25 25 23 L20 14 L20 6 Z" fill="#1d4ed8" stroke="white" stroke-width="1.5" stroke-linejoin="round"/>
  <!-- Flask neck top bar -->
  <rect x="10.5" y="5" width="11" height="2" rx="1" fill="white"/>
  <!-- Liquid inside flask -->
  <path d="M9 22 C8.5 23.5 9.2 25.5 11 25.5 L21 25.5 C22.8 25.5 23.5 23.5 23 22 L18.5 14.5 L13.5 14.5 Z" fill="#60a5fa" opacity="0.9"/>
  <!-- Bubbles in liquid -->
  <circle cx="13" cy="21" r="1.2" fill="white" opacity="0.7"/>
  <circle cx="17" cy="23" r="0.8" fill="white" opacity="0.6"/>
  <circle cx="19" cy="20" r="1" fill="white" opacity="0.5"/>
</svg>
